<?xml version="1.0" standalone="no"?>
<!DOCTYPE svg PUBLIC "-//W3C//DTD SVG 20010904//EN"
 "http://www.w3.org/TR/2001/REC-SVG-20010904/DTD/svg10.dtd">
<svg version="1.0" xmlns="http://www.w3.org/2000/svg"
 width="200.000000pt" height="200.000000pt" viewBox="0 0 200.000000 200.000000"
 preserveAspectRatio="xMidYMid meet">
<metadata>
Created by potrace 1.16, written by Peter Selinger 2001-2019
</metadata>
<g transform="translate(0.000000,200.000000) scale(0.010417,-0.015625)"
fill="#000000" stroke="none">
<path d="M10657 9521 l-1548 -1551 -1332 0 -1332 0 -1270 -1270 -1270 -1270
1560 -2 1560 -3 3 -1552 c1 -854 5 -1553 10 -1553 4 0 707 700 1562 1555
l1555 1555 1320 0 1320 0 1263 1263 c694 694 1262 1265 1262 1270 0 4 -700 7
-1555 7 l-1555 0 -2 1551 -3 1550 -1548 -1550z m913 -776 l0 -775 -777 0 -778
0 775 775 c426 426 776 775 777 775 2 0 3 -349 3 -775z m-3740 -2050 l-625
-625 -872 2 -872 3 620 623 620 622 877 0 877 0 -625 -625z m2688 0 l-620
-625 -892 0 -891 0 625 625 625 625 886 0 886 0 -619 -625z m2632 0 l-625
-625 -857 0 c-472 0 -858 3 -858 7 0 4 278 285 617 625 l618 618 865 0 865 0
-625 -625z m-3914 -1272 c-5 -5 -357 -359 -783 -788 -426 -429 -777 -779 -780
-777 -3 1 -5 1193 -3 1570 0 1 354 2 787 2 432 0 783 -3 779 -7z"/>
<path d="M10160 2614 l0 -946 388 5 c416 4 474 10 646 64 286 89 475 288 548
578 20 80 23 113 22 305 0 199 -2 222 -26 311 -95 352 -344 550 -771 613 -79
12 -190 16 -456 16 l-351 0 0 -946z m755 626 c248 -63 422 -270 456 -542 27
-215 -55 -443 -208 -577 -56 -50 -184 -115 -268 -136 -39 -10 -108 -15 -207
-15 l-148 0 0 645 0 645 148 0 c116 0 166 -4 227 -20z"/>
<path d="M12170 2615 l0 -945 560 0 560 0 0 150 0 150 -365 0 -365 0 0 795 0
795 -195 0 -195 0 0 -945z"/>
<path d="M13630 2616 l0 -946 190 0 190 0 0 391 0 391 118 -3 c191 -6 200 -16
332 -359 50 -129 107 -277 127 -327 l36 -93 213 0 214 0 -20 48 c-127 315
-259 633 -289 697 -44 95 -91 152 -145 176 l-39 17 62 18 c217 60 343 267 311
506 -32 231 -142 343 -399 405 -53 13 -148 17 -483 20 l-418 5 0 -946z m691
634 c119 -22 190 -84 210 -181 25 -127 -33 -236 -149 -280 -59 -22 -322 -49
-356 -36 -14 6 -16 34 -16 257 l0 250 129 0 c70 0 153 -5 182 -10z"/>
</g>
</svg>
