<?xml version="1.0" standalone="no"?>
<!DOCTYPE svg PUBLIC "-//W3C//DTD SVG 20010904//EN"
 "http://www.w3.org/TR/2001/REC-SVG-20010904/DTD/svg10.dtd">
<svg version="1.0" xmlns="http://www.w3.org/2000/svg"
 width="300.000000pt" height="300.000000pt" viewBox="0 0 300.000000 300.000000"
 preserveAspectRatio="xMidYMid meet">
<metadata>
Created by potrace 1.16, written by Peter Selinger 2001-2019
</metadata>
<g transform="translate(0.000000,300.000000) scale(0.021413,-0.023438)"
fill="#000000" stroke="none">
<path d="M7567 9521 l-1547 -1551 -1333 0 -1332 0 -1270 -1270 -1270 -1270
1560 -2 1560 -3 3 -1552 c1 -854 5 -1553 10 -1553 4 0 707 700 1562 1555
l1555 1555 1320 0 1320 0 1263 1263 c694 694 1262 1265 1262 1270 0 4 -700 7
-1555 7 l-1555 0 -2 1551 -3 1550 -1548 -1550z m913 -776 l0 -775 -777 0 -778
0 775 775 c426 426 776 775 777 775 2 0 3 -349 3 -775z m-3740 -2050 l-625
-625 -872 2 -872 3 617 621 617 622 880 1 880 1 -625 -625z m2688 0 l-620
-625 -884 0 c-486 0 -884 3 -884 7 0 5 278 286 617 625 l618 618 886 0 886 0
-619 -625z m2632 0 l-625 -625 -857 0 c-472 0 -858 3 -858 7 0 4 278 285 617
625 l618 618 865 0 865 0 -625 -625z m-3914 -1272 c-5 -5 -355 -357 -780 -784
-424 -428 -775 -776 -779 -775 -5 1 -12 1374 -7 1564 0 1 354 2 787 2 432 0
783 -3 779 -7z"/>
<path d="M7070 2614 l0 -946 393 5 c350 4 403 7 491 26 325 68 517 201 631
436 75 153 90 233 89 485 0 200 -2 222 -26 312 -95 351 -344 549 -771 612 -79
12 -190 16 -456 16 l-351 0 0 -946z m740 630 c148 -34 287 -132 369 -258 143
-219 141 -527 -4 -746 -60 -90 -130 -151 -230 -200 -118 -58 -176 -70 -347
-70 l-148 0 0 645 0 645 148 0 c96 0 169 -6 212 -16z"/>
<path d="M9080 2615 l0 -945 560 0 560 0 0 150 0 150 -365 0 -365 0 0 795 0
795 -195 0 -195 0 0 -945z"/>
<path d="M10540 2616 l0 -946 190 0 190 0 0 391 0 391 118 -4 c191 -6 199 -15
327 -344 48 -126 106 -275 128 -331 l40 -103 213 0 214 0 -19 48 c-106 260
-285 690 -305 731 -35 68 -83 121 -130 142 l-39 17 62 18 c217 60 343 267 311
506 -32 231 -142 343 -399 405 -53 13 -148 17 -483 20 l-418 5 0 -946z m754
619 c75 -27 131 -89 146 -159 27 -133 -29 -241 -151 -287 -56 -22 -320 -49
-353 -36 -14 6 -16 34 -16 258 l0 251 163 -5 c121 -3 175 -9 211 -22z"/>
</g>
</svg>
