<?xml version="1.0" standalone="no"?>
<!DOCTYPE svg PUBLIC "-//W3C//DTD SVG 20010904//EN"
 "http://www.w3.org/TR/2001/REC-SVG-20010904/DTD/svg10.dtd">
<svg version="1.0" xmlns="http://www.w3.org/2000/svg"
 width="200.000000pt" height="200.000000pt" viewBox="0 0 200.000000 200.000000"
 preserveAspectRatio="xMidYMid meet">
<metadata>
Created by potrace 1.16, written by Peter Selinger 2001-2019
</metadata>
<g transform="translate(0.000000,200.000000) scale(0.100000,-0.100000)"
fill="#000000" stroke="none">
<path d="M253 1362 l-63 -3 0 -334 c0 -190 4 -345 10 -359 5 -15 20 -28 37
-33 35 -9 433 -10 433 -1 0 3 -7 20 -15 37 -8 17 -22 45 -30 62 -8 17 -15 37
-15 45 0 11 -23 14 -123 14 -82 0 -127 4 -135 12 -9 9 -12 86 -12 284 0 209
-3 273 -12 275 -7 2 -41 3 -75 1z"/>
<path d="M370 1101 c0 -236 2 -271 15 -271 13 0 15 34 13 267 -2 202 -6 267
-15 271 -10 3 -13 -55 -13 -267z"/>
<path d="M489 1359 c-13 -8 -3 -36 60 -170 17 -36 31 -68 31 -72 0 -3 14 -36
31 -74 16 -37 34 -77 39 -88 5 -11 20 -45 33 -75 13 -30 41 -95 62 -144 32
-74 44 -91 70 -102 39 -16 93 -4 121 27 16 18 19 40 22 160 2 76 8 139 13 139
5 0 43 -69 84 -154 41 -84 81 -158 88 -164 31 -26 93 -17 128 17 l29 29 0 335
c0 259 -3 336 -12 339 -7 2 -38 4 -68 3 l-55 0 -3 -167 c-3 -192 -11 -207 -57
-105 -15 34 -41 90 -56 125 -16 35 -29 67 -29 72 0 5 -13 23 -30 40 -25 25
-37 30 -78 30 -83 0 -86 -6 -92 -179 -3 -90 -9 -152 -15 -152 -5 -1 -20 25
-33 58 -13 32 -30 74 -38 93 -9 19 -20 46 -26 60 -6 14 -17 37 -24 52 -8 14
-14 33 -14 42 0 9 -10 18 -22 21 -36 7 -149 11 -159 4z"/>
<path d="M1330 1034 c0 -212 -4 -342 -10 -355 -15 -28 5 -23 24 6 14 21 16 67
16 355 0 287 -2 330 -15 330 -13 0 -15 -44 -15 -336z"/>
<path d="M1484 1362 c-12 -2 -32 -14 -45 -28 l-24 -26 0 -341 0 -341 67 -3
c37 -1 70 1 72 6 3 4 6 61 7 127 0 65 6 125 11 132 7 8 49 12 144 12 l134 0 0
80 0 80 -139 0 c-117 0 -140 2 -145 16 -11 28 -6 113 7 121 12 8 39 10 192 12
l85 1 0 75 0 75 -87 1 c-49 0 -126 1 -173 2 -47 1 -95 1 -106 -1z"/>
</g>
</svg>
