<?xml version="1.0" standalone="no"?>
<!DOCTYPE svg PUBLIC "-//W3C//DTD SVG 20010904//EN"
 "http://www.w3.org/TR/2001/REC-SVG-20010904/DTD/svg10.dtd">
<svg version="1.0" xmlns="http://www.w3.org/2000/svg"
 width="200.000000pt" height="200.000000pt" viewBox="0 0 200.000000 200.000000"
 preserveAspectRatio="xMidYMid meet">
<metadata>
Created by potrace 1.16, written by Peter Selinger 2001-2019
</metadata>
<g transform="translate(0.000000,200.000000) scale(0.016667,-0.032051)"
fill="#000000" stroke="none">
<path d="M0 5660 l0 -580 575 0 575 0 0 -2540 0 -2540 580 0 580 0 0 2540 0
2540 570 0 570 0 0 -2540 0 -2540 1815 0 1815 0 0 2540 0 2540 650 0 650 0 0
-2540 0 -2540 580 0 580 0 0 2540 0 2540 655 0 655 0 0 -2540 0 -2540 575 0
575 0 0 3120 0 3120 -3040 0 -3040 0 0 -2550 0 -2550 -655 0 -655 0 0 2550 0
2550 -2305 0 -2305 0 0 -580z"/>
</g>
</svg>
