<?xml version="1.0" standalone="no"?>
<!DOCTYPE svg PUBLIC "-//W3C//DTD SVG 20010904//EN"
 "http://www.w3.org/TR/2001/REC-SVG-20010904/DTD/svg10.dtd">
<svg version="1.0" xmlns="http://www.w3.org/2000/svg"
 width="200.000000pt" height="200.000000pt" viewBox="0 0 200.000000 200.000000"
 preserveAspectRatio="xMidYMid meet">
<metadata>
Created by potrace 1.16, written by Peter Selinger 2001-2019
</metadata>
<g transform="translate(0.000000,200.000000) scale(0.031447,-0.031447)"
fill="#000000" stroke="none">
<path d="M1080 4075 l0 -185 190 0 190 0 2 -832 3 -833 183 -3 182 -2 0 835 0
835 190 0 190 0 0 -835 0 -835 584 0 c523 0 584 2 590 16 3 9 6 384 6 835 l0
819 215 0 215 0 0 -835 0 -835 185 0 185 0 0 835 0 835 218 -2 217 -3 3 -832
2 -833 185 0 185 0 0 1020 0 1020 -990 0 -990 0 0 -835 0 -835 -220 0 -220 0
0 835 0 835 -750 0 -750 0 0 -185z"/>
</g>
</svg>
